<?xml version="1.0" encoding="utf-8"?>
<!-- Generator: Adobe Illustrator 16.0.3, SVG Export Plug-In . SVG Version: 6.00 Build 0)  -->
<!DOCTYPE svg PUBLIC "-//W3C//DTD SVG 1.1//EN" "http://www.w3.org/Graphics/SVG/1.1/DTD/svg11.dtd">
<svg version="1.1" id="Layer_1" xmlns="http://www.w3.org/2000/svg" xmlns:xlink="http://www.w3.org/1999/xlink" x="0px" y="0px"
	 width="84px" height="114px" viewBox="0 0 84 114" enable-background="new 0 0 84 114" xml:space="preserve">
<g>
	<g>
		<g>
			<path fill="#FFFFFF" d="M73.714,41.968c-1.47-2.054-4.301-4.504-9.416-4.504h-0.71c3.196-3.572,4.584-8.569,4.112-14.869
				c-0.113-1.555-1.335-2.816-2.885-3.012c0,0-0.764-0.094-2.007-0.094c-2.438,0-6.398,0.393-10.065,2.378
				c-0.965-4.654-3.84-9.085-8.627-13.209C43.507,8.134,42.755,7.873,42,7.868c-0.755,0.005-1.508,0.267-2.116,0.791
				c-4.787,4.124-7.662,8.555-8.627,13.209c-3.668-1.985-7.628-2.378-10.065-2.378c-1.243,0-2.007,0.094-2.007,0.094
				c-1.55,0.195-2.771,1.457-2.886,3.012c-0.472,6.3,0.917,11.297,4.113,14.869h-0.71c-5.116,0-7.947,2.45-9.417,4.504
				c-1.772,2.478-2.674,5.86-2.674,10.065c0,18.113,19.222,54.099,34.389,54.099s34.389-35.986,34.389-54.099
				C76.389,47.829,75.487,44.446,73.714,41.968z"/>
			<path fill="#FFFFFF" d="M42,113.633c-13.131,0-24.011-14.988-29.327-23.922C5.042,76.889,0.111,62.1,0.111,52.034
				c0-5.796,1.371-10.65,4.074-14.43c1.484-2.073,3.319-3.755,5.431-5.007c-0.817-3.188-1.084-6.715-0.797-10.562
				c0.374-5.087,4.339-9.252,9.428-9.894c0.31-0.038,1.365-0.152,2.944-0.152c1.601,0,3.568,0.122,5.718,0.523
				c1.923-3.369,4.622-6.559,8.079-9.537c1.933-1.665,4.405-2.592,6.963-2.608c2.652,0.017,5.124,0.942,7.058,2.606
				c3.459,2.979,6.159,6.17,8.081,9.538c2.15-0.4,4.118-0.522,5.719-0.522c1.579,0,2.635,0.114,2.921,0.149
				c5.114,0.645,9.079,4.812,9.451,9.911c0.287,3.839,0.02,7.362-0.797,10.547c2.11,1.252,3.945,2.934,5.429,5.007
				c2.705,3.777,4.076,8.633,4.076,14.43c0,10.066-4.931,24.855-12.562,37.677C66.011,98.645,55.131,113.633,42,113.633z
				 M19.702,44.964c-2.072,0-2.862,0.731-3.318,1.369c-0.82,1.146-1.272,3.172-1.272,5.7c0,16.871,18.557,46.599,26.889,46.599
				s26.889-29.729,26.889-46.599c0-2.528-0.452-4.553-1.273-5.7c-0.456-0.638-1.246-1.369-3.317-1.369h-0.71
				c-2.958,0-5.64-1.738-6.847-4.438s-0.715-5.858,1.258-8.063c1.152-1.289,1.873-3.049,2.155-5.258
				c-1.212,0.199-2.576,0.573-3.84,1.258c-2.087,1.128-4.583,1.204-6.732,0.205c-2.15-0.999-3.701-2.956-4.183-5.278
				c-0.435-2.096-1.574-4.209-3.399-6.309c-1.825,2.101-2.965,4.213-3.399,6.309c-0.481,2.321-2.032,4.279-4.183,5.278
				c-2.149,0.999-4.645,0.924-6.731-0.205c-1.265-0.685-2.63-1.059-3.841-1.258c0.282,2.21,1.003,3.97,2.155,5.258
				c1.973,2.204,2.465,5.362,1.258,8.063s-3.889,4.438-6.847,4.438H19.702z"/>
		</g>
	</g>
	<g>
		<g>
			<path fill="#E8234E" d="M24.061,51.818c0-0.874-0.349-1.704-0.957-2.339c-1.229-1.223-3.411-1.203-4.636,0
				c-0.59,0.615-0.939,1.466-0.939,2.339c0,0.853,0.35,1.707,0.939,2.292c0.613,0.637,1.466,0.988,2.317,0.988
				c0.876,0,1.705-0.352,2.319-0.988C23.712,53.502,24.061,52.67,24.061,51.818z"/>
		</g>
		<g>
			<path fill="#E8234E" d="M29.33,60.014c0-0.877-0.35-1.723-0.959-2.338c-1.228-1.198-3.432-1.198-4.634,0
				c-0.615,0.62-0.964,1.465-0.964,2.338c0,0.854,0.349,1.711,0.964,2.295c0.61,0.617,1.442,0.965,2.316,0.965
				c0.877,0,1.705-0.348,2.319-0.965C28.98,61.697,29.33,60.865,29.33,60.014z"/>
		</g>
		<g>
			<path fill="#E8234E" d="M33.173,57.674c-0.608,0.617-0.961,1.462-0.961,2.337c0,0.854,0.353,1.709,0.961,2.293
				c0.611,0.617,1.442,0.965,2.321,0.965c0.851,0,1.703-0.348,2.315-0.965c0.611-0.607,0.961-1.439,0.961-2.293
				c0-0.877-0.35-1.723-0.961-2.337C36.586,56.474,34.398,56.474,33.173,57.674z"/>
		</g>
		<g>
			<path fill="#E8234E" d="M28.323,65.809c-0.612,0.635-0.963,1.463-0.963,2.316c0,0.875,0.351,1.703,0.963,2.318
				c0.611,0.609,1.463,0.959,2.318,0.959c0.875,0,1.729-0.35,2.318-0.959c0.611-0.615,0.962-1.443,0.962-2.318
				c0-0.854-0.351-1.709-0.962-2.316C31.753,64.58,29.569,64.58,28.323,65.809z"/>
		</g>
		<g>
			<path fill="#E8234E" d="M30.508,55.098c0.852,0,1.708-0.352,2.319-0.988c0.613-0.585,0.961-1.439,0.961-2.292
				c0-0.874-0.348-1.728-0.961-2.339c-1.245-1.223-3.407-1.203-4.634,0c-0.61,0.615-0.96,1.466-0.96,2.339
				c0,0.853,0.35,1.707,0.96,2.292C28.804,54.747,29.637,55.098,30.508,55.098z"/>
		</g>
		<g>
			<path fill="#E8234E" d="M37.897,49.479c-0.611,0.615-0.964,1.466-0.964,2.339c0,0.853,0.353,1.707,0.964,2.292
				c0.61,0.637,1.442,0.988,2.317,0.988c0.854,0,1.706-0.352,2.318-0.988c0.612-0.585,0.96-1.439,0.96-2.292
				c0-0.874-0.348-1.728-0.96-2.339C41.283,48.256,39.097,48.276,37.897,49.479z"/>
		</g>
		<g>
			<path fill="#E8234E" d="M73.714,41.968c-1.47-2.054-4.301-4.504-9.416-4.504h-0.71c3.196-3.572,4.584-8.569,4.112-14.869
				c-0.113-1.555-1.335-2.816-2.885-3.012c0,0-0.764-0.094-2.007-0.094c-2.438,0-6.398,0.393-10.065,2.378
				c-0.965-4.654-3.84-9.085-8.627-13.209C43.507,8.134,42.755,7.873,42,7.868c-0.755,0.005-1.508,0.267-2.116,0.791
				c-4.787,4.124-7.662,8.555-8.627,13.209c-3.668-1.985-7.628-2.378-10.065-2.378c-1.243,0-2.007,0.094-2.007,0.094
				c-1.55,0.195-2.771,1.457-2.886,3.012c-0.472,6.3,0.917,11.297,4.113,14.869h-0.71c-5.116,0-7.947,2.45-9.417,4.504
				c-1.772,2.478-2.674,5.86-2.674,10.065c0,18.113,19.222,54.099,34.389,54.099s34.389-35.986,34.389-54.099
				C76.389,47.829,75.487,44.446,73.714,41.968z M53.534,29.387c2.175-2.341,5.44-3.062,7.665-3.262
				c-0.176,3.046-1.043,5.427-2.596,7.096c-2.153,2.323-5.347,3.024-7.664,3.203C51.114,33.418,51.987,31.06,53.534,29.387z
				 M42,15.679c3.124,3.29,4.659,6.641,4.562,10.002c-0.111,4.109-2.64,7.605-4.508,9.644c-0.02-0.021-0.035-0.041-0.054-0.062
				c-0.02,0.021-0.034,0.041-0.054,0.062c-1.868-2.038-4.396-5.534-4.51-9.644C37.34,22.32,38.876,18.969,42,15.679z M30.466,29.387
				c1.547,1.673,2.42,4.031,2.595,7.037c-2.317-0.179-5.511-0.88-7.664-3.203c-1.554-1.669-2.421-4.05-2.597-7.096
				C25.025,26.326,28.291,27.046,30.466,29.387z M42,99.479c-10.475,0-27.827-31.516-27.827-47.443c0-2.766,0.505-4.927,1.45-6.248
				c0.538-0.759,1.556-1.763,4.084-1.763H42h22.293c2.527,0,3.546,1.004,4.084,1.763c0.945,1.321,1.45,3.482,1.45,6.248
				C69.827,67.963,52.474,99.479,42,99.479z"/>
		</g>
	</g>
</g>
</svg>
